<svg width="1920" height="1080" xmlns="http://www.w3.org/2000/svg">
  <defs>
    <linearGradient id="grad3" x1="0%" y1="0%" x2="100%" y2="100%">
      <stop offset="0%" style="stop-color:#16a085;stop-opacity:0.7" />
      <stop offset="100%" style="stop-color:#2c3e50;stop-opacity:0.7" />
    </linearGradient>
  </defs>
  <rect width="100%" height="100%" fill="url(#grad3)" />
  <g stroke="#ffffff" stroke-width="1" opacity="0.1">
    <line x1="0" y1="200" x2="1920" y2="200" />
    <line x1="0" y1="400" x2="1920" y2="400" />
    <line x1="0" y1="600" x2="1920" y2="600" />
    <line x1="0" y1="800" x2="1920" y2="800" />
    <line x1="0" y1="1000" x2="1920" y2="1000" />
    
    <line x1="200" y1="0" x2="200" y2="1080" />
    <line x1="400" y1="0" x2="400" y2="1080" />
    <line x1="600" y1="0" x2="600" y2="1080" />
    <line x1="800" y1="0" x2="800" y2="1080" />
    <line x1="1000" y1="0" x2="1000" y2="1080" />
    <line x1="1200" y1="0" x2="1200" y2="1080" />
    <line x1="1400" y1="0" x2="1400" y2="1080" />
    <line x1="1600" y1="0" x2="1600" y2="1080" />
    <line x1="1800" y1="0" x2="1800" y2="1080" />
  </g>
</svg>